<svg xmlns="http://www.w3.org/2000/svg" viewBox="0 0 1200 675" role="img" aria-labelledby="title desc">
  <title id="title">PearlyX Instagram clone preview</title>
  <desc id="desc">A soft pink Instagram clone dashboard preview with sidebar navigation, stories, profile badge, and empty feed state.</desc>
  <defs>
    <linearGradient id="bg" x1="0" x2="1" y1="0" y2="1">
      <stop offset="0" stop-color="#ffe4ee"/>
      <stop offset="0.45" stop-color="#fff8f2"/>
      <stop offset="1" stop-color="#ffd1ec"/>
    </linearGradient>
    <linearGradient id="brand" x1="0" x2="1" y1="0" y2="1">
      <stop offset="0" stop-color="#ec2f7f"/>
      <stop offset="1" stop-color="#ff8a22"/>
    </linearGradient>
    <linearGradient id="story" x1="0" x2="1" y1="0" y2="1">
      <stop offset="0" stop-color="#df2f85"/>
      <stop offset="0.56" stop-color="#ff4a58"/>
      <stop offset="1" stop-color="#ff941f"/>
    </linearGradient>
    <filter id="shadow" x="-20%" y="-20%" width="140%" height="140%">
      <feDropShadow dx="0" dy="18" stdDeviation="24" flood-color="#d55a8c" flood-opacity="0.18"/>
    </filter>
    <filter id="soft" x="-25%" y="-25%" width="150%" height="150%">
      <feGaussianBlur stdDeviation="20"/>
    </filter>
  </defs>

  <rect width="1200" height="675" fill="url(#bg)"/>
  <circle cx="152" cy="72" r="116" fill="#ffffff" opacity="0.38" filter="url(#soft)"/>
  <circle cx="1120" cy="96" r="150" fill="#f5d8ff" opacity="0.45" filter="url(#soft)"/>
  <circle cx="1020" cy="628" r="150" fill="#ffc3e5" opacity="0.5" filter="url(#soft)"/>

  <rect x="22" y="24" width="238" height="628" rx="22" fill="#fff5f7" fill-opacity="0.78" stroke="#ffffff" stroke-opacity="0.75" filter="url(#shadow)"/>
  <rect x="47" y="51" width="37" height="37" rx="10" fill="url(#brand)"/>
  <text x="59" y="76" fill="#ffffff" font-family="Inter, Arial, sans-serif" font-size="16" font-weight="900">PX</text>
  <text x="98" y="76" fill="#171b22" font-family="Inter, Arial, sans-serif" font-size="27" font-weight="900">PearlyX</text>

  <g font-family="Inter, Arial, sans-serif" font-size="17" font-weight="850" fill="#171b22">
    <rect x="36" y="118" width="209" height="57" rx="14" fill="#ffffff" stroke="#ffffff" filter="url(#shadow)"/>
    <rect x="47" y="129" width="37" height="37" rx="9" fill="url(#brand)"/>
    <path d="M58 149l9-8 9 8v12h-6v-8h-6v8h-6z" fill="#ffffff"/>
    <text x="98" y="151" fill="#ec2f7f">Home</text>

    <g transform="translate(47 216)">
      <rect width="37" height="37" rx="9" fill="#fff4f8"/>
      <circle cx="17" cy="17" r="7" fill="none" stroke="#171b22" stroke-width="2"/>
      <path d="m23 23 6 6" stroke="#171b22" stroke-width="2" stroke-linecap="round"/>
      <text x="51" y="24">Search</text>
    </g>
    <g transform="translate(47 278)">
      <rect width="37" height="37" rx="9" fill="#fff4f8"/>
      <circle cx="18" cy="18" r="8" fill="none" stroke="#171b22" stroke-width="2"/>
      <path d="m14 22 9-9" stroke="#171b22" stroke-width="2" stroke-linecap="round"/>
      <text x="51" y="24">Explore</text>
    </g>
    <g transform="translate(47 340)">
      <rect width="37" height="37" rx="9" fill="#fff4f8"/>
      <rect x="11" y="11" width="16" height="16" rx="3" fill="none" stroke="#171b22" stroke-width="2"/>
      <path d="m12 15 15-2" stroke="#171b22" stroke-width="2"/>
      <text x="51" y="24">Reels</text>
    </g>
    <g transform="translate(47 402)">
      <rect width="37" height="37" rx="9" fill="#fff4f8"/>
      <path d="M10 16c0-6 5-10 9-10s9 4 9 10-5 10-9 10h-8l2-4c-2-2-3-4-3-6z" fill="none" stroke="#171b22" stroke-width="2"/>
      <text x="51" y="24">Messages</text>
    </g>
    <g transform="translate(47 464)">
      <rect width="37" height="37" rx="9" fill="#fff4f8"/>
      <path d="M14 27h10m-8-2v-8a6 6 0 0 1 12 0v8" fill="none" stroke="#171b22" stroke-width="2" stroke-linecap="round"/>
      <text x="51" y="24">Notifications</text>
    </g>
    <g transform="translate(47 526)">
      <rect width="37" height="37" rx="9" fill="#fff4f8"/>
      <path d="M18 11v15M11 18h15" stroke="#171b22" stroke-width="2" stroke-linecap="round"/>
      <text x="51" y="24">Create</text>
    </g>
    <g transform="translate(47 588)">
      <rect width="37" height="37" rx="9" fill="#fff4f8"/>
      <circle cx="15" cy="15" r="5" fill="none" stroke="#171b22" stroke-width="2"/>
      <circle cx="25" cy="14" r="4" fill="none" stroke="#171b22" stroke-width="2"/>
      <path d="M8 29c2-6 12-6 15 0M20 29c1-4 8-4 10 0" fill="none" stroke="#171b22" stroke-width="2" stroke-linecap="round"/>
      <text x="51" y="24">People</text>
    </g>
  </g>

  <text x="304" y="57" fill="#ef3580" font-family="Inter, Arial, sans-serif" font-size="16" font-weight="900" letter-spacing="1">WELCOME BACK</text>
  <text x="304" y="107" fill="#171b22" font-family="Inter, Arial, sans-serif" font-size="46" font-weight="950">Muji</text>
  <text x="304" y="142" fill="#66717c" font-family="Inter, Arial, sans-serif" font-size="17">Share moments. Inspire the world.</text>
  <circle cx="1130" cy="76" r="37" fill="#ffffff" filter="url(#shadow)"/>
  <circle cx="1130" cy="76" r="31" fill="url(#brand)"/>
  <text x="1118" y="88" fill="#ffffff" font-family="Inter, Arial, sans-serif" font-size="26" font-weight="900">M</text>

  <g font-family="Inter, Arial, sans-serif" font-size="13" font-weight="750" fill="#171b22">
    <g transform="translate(304 174)">
      <circle cx="32" cy="32" r="32" fill="url(#story)"/>
      <rect x="18" y="24" width="20" height="18" rx="2" fill="none" stroke="#ffffff" stroke-width="3"/>
      <path d="M28 17v19" stroke="#ffffff" stroke-width="3" stroke-linecap="round"/>
      <circle cx="55" cy="55" r="12" fill="#ff5a5f" stroke="#ffffff" stroke-width="3"/>
      <path d="M50 55h10M55 50v10" stroke="#ffffff" stroke-width="2"/>
      <text x="4" y="88">Your story</text>
    </g>
    <g transform="translate(404 174)">
      <circle cx="32" cy="32" r="34" fill="none" stroke="url(#story)" stroke-width="4"/>
      <circle cx="32" cy="32" r="27" fill="#b67c52"/>
      <circle cx="32" cy="27" r="13" fill="#2a201c"/>
      <text x="18" y="88">Alex</text>
    </g>
    <g transform="translate(512 174)">
      <circle cx="32" cy="32" r="34" fill="none" stroke="url(#story)" stroke-width="4"/>
      <rect x="13" y="10" width="38" height="44" rx="17" fill="#e2a66f"/>
      <circle cx="34" cy="23" r="11" fill="#333"/>
      <text x="15" y="88">Sofia</text>
    </g>
    <g transform="translate(620 174)">
      <circle cx="32" cy="32" r="34" fill="none" stroke="url(#story)" stroke-width="4"/>
      <circle cx="32" cy="32" r="27" fill="#77b9d3"/>
      <path d="M15 48c22-20 34-18 43 0z" fill="#335b45"/>
      <path d="M31 43V15M31 27l-14-8M31 28l17-10" stroke="#22422f" stroke-width="3"/>
      <text x="0" y="88">Travel Vibes</text>
    </g>
    <g transform="translate(728 174)">
      <circle cx="32" cy="32" r="34" fill="none" stroke="url(#story)" stroke-width="4"/>
      <circle cx="32" cy="32" r="27" fill="#68422f"/>
      <ellipse cx="32" cy="30" rx="19" ry="13" fill="#f3e1c9"/>
      <path d="M21 29c8 8 17 8 24 0" fill="none" stroke="#c6915f" stroke-width="3"/>
      <text x="2" y="88">Coffee Time</text>
    </g>
    <g transform="translate(836 174)">
      <circle cx="32" cy="32" r="34" fill="none" stroke="url(#story)" stroke-width="4"/>
      <circle cx="32" cy="32" r="27" fill="#8557ad"/>
      <path d="M6 48h52L42 28 30 39 21 32z" fill="#f28a42"/>
      <text x="11" y="88">Sunsets</text>
    </g>
    <g transform="translate(944 174)">
      <circle cx="32" cy="32" r="34" fill="none" stroke="url(#story)" stroke-width="4"/>
      <circle cx="32" cy="32" r="27" fill="#edc2c1"/>
      <path d="M30 19 44 31 30 43z" fill="#ffffff" opacity="0.7"/>
      <text x="3" y="88">Design Lab</text>
    </g>
  </g>

  <rect x="304" y="285" width="814" height="330" rx="22" fill="#fffafd" fill-opacity="0.75" stroke="#ffffff" filter="url(#shadow)"/>
  <rect x="658" y="338" width="90" height="78" rx="18" fill="#ffcade" filter="url(#shadow)"/>
  <rect x="675" y="352" width="55" height="43" rx="9" fill="#fff0f5"/>
  <circle cx="693" cy="369" r="7" fill="#ef5c8c"/>
  <path d="M681 393 697 373l18 20z" fill="#ff9fb4"/>
  <text x="642" y="457" fill="#171b22" font-family="Inter, Arial, sans-serif" font-size="25" font-weight="900">No posts yet</text>
  <text x="581" y="489" fill="#6a7480" font-family="Inter, Arial, sans-serif" font-size="15">Looks like your feed is a little quiet right now.</text>
  <text x="586" y="511" fill="#6a7480" font-family="Inter, Arial, sans-serif" font-size="15">Share your first post and start your journey!</text>
  <rect x="595" y="537" width="232" height="45" rx="8" fill="url(#brand)"/>
  <path d="M629 552v16M621 560h16" stroke="#ffffff" stroke-width="3" stroke-linecap="round"/>
  <text x="657" y="564" fill="#ffffff" font-family="Inter, Arial, sans-serif" font-size="16" font-weight="900">Create your first post</text>
</svg>
