<svg xmlns="http://www.w3.org/2000/svg" viewBox="0 0 1200 675" role="img" aria-labelledby="title desc">
  <title id="title">Student Teacher Portal dashboard preview</title>
  <desc id="desc">A clean student teacher portal dashboard with sidebar navigation, summary cards, and recent students, teachers, and subjects tables.</desc>
  <defs>
    <linearGradient id="purple" x1="0" x2="1" y1="0" y2="1">
      <stop offset="0" stop-color="#7b61ff"/>
      <stop offset="1" stop-color="#4237ff"/>
    </linearGradient>
    <linearGradient id="softPurple" x1="0" x2="1" y1="0" y2="1">
      <stop offset="0" stop-color="#f0edff"/>
      <stop offset="1" stop-color="#e8e4ff"/>
    </linearGradient>
    <linearGradient id="green" x1="0" x2="1" y1="0" y2="1">
      <stop offset="0" stop-color="#ddf8e9"/>
      <stop offset="1" stop-color="#bdf1d8"/>
    </linearGradient>
    <linearGradient id="yellow" x1="0" x2="1" y1="0" y2="1">
      <stop offset="0" stop-color="#fff4d7"/>
      <stop offset="1" stop-color="#ffedbf"/>
    </linearGradient>
    <filter id="shadow" x="-20%" y="-20%" width="140%" height="140%">
      <feDropShadow dx="0" dy="8" stdDeviation="14" flood-color="#2c355a" flood-opacity="0.08"/>
    </filter>
  </defs>

  <rect width="1200" height="675" fill="#fbfcff"/>
  <rect x="0" y="0" width="232" height="675" fill="#ffffff"/>
  <line x1="232" y1="0" x2="232" y2="675" stroke="#e6e8f0"/>
  <rect x="232" y="0" width="968" height="74" fill="#ffffff"/>
  <line x1="232" y1="74" x2="1200" y2="74" stroke="#e6e8f0"/>

  <g transform="translate(24 30)">
    <path d="M15 0 31 7 15 14 0 7z" fill="#2f2b9e"/>
    <path d="M4 10 15 16l12-6v9l-12 6-11-6z" fill="#7b61ff"/>
    <text x="46" y="13" fill="#101827" font-family="Inter, Arial, sans-serif" font-size="17" font-weight="850">Student Teacher Portal</text>
  </g>

  <g font-family="Inter, Arial, sans-serif" font-size="13" font-weight="760">
    <rect x="3" y="89" width="213" height="35" rx="4" fill="#f2f0ff"/>
    <rect x="2" y="89" width="4" height="35" rx="2" fill="url(#purple)"/>
    <path d="M22 109v-10l7-6 7 6v10h-5v-7h-4v7z" fill="none" stroke="#5a4cff" stroke-width="2"/>
    <text x="48" y="110" fill="#372cff">Dashboard</text>

    <text x="18" y="158" fill="#596377" font-size="11">MANAGEMENT</text>
    <g fill="none" stroke="#596377" stroke-width="1.8" stroke-linecap="round">
      <circle cx="25" cy="189" r="5"/><path d="M15 204c2-8 18-8 20 0"/><circle cx="38" cy="191" r="4"/><path d="M36 204c1-4 8-4 10 0"/>
      <circle cx="27" cy="232" r="5"/><path d="M17 246c2-8 18-8 20 0"/>
      <rect x="18" y="269" width="14" height="13" rx="2"/><path d="M25 270v12M32 270l8 3v13l-8-4"/>
    </g>
    <text x="48" y="195" fill="#3d465c">Students</text>
    <text x="48" y="238" fill="#3d465c">Teachers</text>
    <text x="48" y="279" fill="#3d465c">Subjects</text>

    <text x="18" y="322" fill="#596377" font-size="11">OTHER</text>
    <g fill="none" stroke="#596377" stroke-width="1.8" stroke-linecap="round">
      <path d="M20 365v-10M27 365v-17M34 365v-13"/>
      <circle cx="27" cy="404" r="7"/><path d="M27 393v4M27 411v4M16 404h4M34 404h4"/>
    </g>
    <text x="48" y="360" fill="#3d465c">Reports</text>
    <text x="48" y="401" fill="#3d465c">Settings</text>

    <path d="M22 642h10M22 642v-10h8M30 636l6 6-6 6" fill="none" stroke="#ff2f36" stroke-width="1.8" stroke-linecap="round"/>
    <text x="48" y="646" fill="#ff2f36">Logout</text>
  </g>

  <g transform="translate(258 29)">
    <path d="M0 0h15M0 7h15M0 14h15" stroke="#101827" stroke-width="2" stroke-linecap="round"/>
    <text x="43" y="15" fill="#101827" font-family="Inter, Arial, sans-serif" font-size="23" font-weight="900">Dashboard</text>
  </g>
  <g transform="translate(1032 20)">
    <circle cx="23" cy="23" r="19" fill="#edeaff"/>
    <circle cx="23" cy="16" r="7" fill="#5d52f5"/>
    <path d="M8 39c3-15 27-15 30 0" fill="#5d52f5"/>
    <text x="52" y="14" fill="#101827" font-family="Inter, Arial, sans-serif" font-size="15" font-weight="850">Admin</text>
    <text x="52" y="31" fill="#596377" font-family="Inter, Arial, sans-serif" font-size="12">Administrator</text>
    <path d="M140 20l5 5 5-5" fill="none" stroke="#34405a" stroke-width="1.5" stroke-linecap="round"/>
  </g>

  <g font-family="Inter, Arial, sans-serif">
    <g transform="translate(254 96)" filter="url(#shadow)">
      <rect width="292" height="109" rx="7" fill="#ffffff" stroke="#e5e8f1"/>
      <rect x="24" y="24" width="59" height="60" rx="11" fill="url(#softPurple)"/>
      <path d="M40 61c2-13 27-13 30 0M45 42a8 8 0 1 0 0.1 0M65 43a6 6 0 1 0 .1 0" fill="none" stroke="#6456ff" stroke-width="2.4" stroke-linecap="round"/>
      <text x="106" y="36" fill="#555f73" font-size="13">Total Students</text>
      <text x="106" y="61" fill="#101827" font-size="24" font-weight="900">120</text>
      <text x="106" y="83" fill="#372cff" font-size="13">View all students</text>
    </g>
    <g transform="translate(568 96)" filter="url(#shadow)">
      <rect width="292" height="109" rx="7" fill="#ffffff" stroke="#e5e8f1"/>
      <rect x="24" y="24" width="59" height="60" rx="11" fill="url(#green)"/>
      <circle cx="53" cy="48" r="5" fill="none" stroke="#24bd73" stroke-width="2.4"/>
      <path d="M41 66c2-13 24-13 26 0" fill="none" stroke="#24bd73" stroke-width="2.4" stroke-linecap="round"/>
      <text x="106" y="36" fill="#555f73" font-size="13">Total Teachers</text>
      <text x="106" y="61" fill="#101827" font-size="24" font-weight="900">15</text>
      <text x="106" y="83" fill="#372cff" font-size="13">View all teachers</text>
    </g>
    <g transform="translate(882 96)" filter="url(#shadow)">
      <rect width="292" height="109" rx="7" fill="#ffffff" stroke="#e5e8f1"/>
      <rect x="24" y="24" width="59" height="60" rx="11" fill="url(#yellow)"/>
      <path d="M42 45c7-4 15-4 22 0v27c-7-4-15-4-22 0zM64 45c7-4 15-4 22 0v27c-7-4-15-4-22 0z" fill="none" stroke="#f59e0b" stroke-width="2.4" stroke-linejoin="round"/>
      <text x="106" y="36" fill="#555f73" font-size="13">Total Subjects</text>
      <text x="106" y="61" fill="#101827" font-size="24" font-weight="900">25</text>
      <text x="106" y="83" fill="#372cff" font-size="13">View all subjects</text>
    </g>
  </g>

  <g transform="translate(254 226)" font-family="Inter, Arial, sans-serif" filter="url(#shadow)">
    <rect width="920" height="260" rx="7" fill="#ffffff" stroke="#e5e8f1"/>
    <text x="18" y="33" fill="#101827" font-size="17" font-weight="900">Recent Students</text>
    <rect x="844" y="18" width="57" height="26" rx="5" fill="#ffffff" stroke="#e5e8f1"/>
    <text x="856" y="36" fill="#372cff" font-size="12" font-weight="760">View All</text>
    <rect x="18" y="58" width="884" height="38" fill="#f7f8fb"/>
    <g fill="#3d465c" font-size="12" font-weight="750">
      <text x="25" y="82">#</text><text x="76" y="82">Name</text><text x="323" y="82">Class</text><text x="445" y="82">Email</text><text x="660" y="82">Phone</text><text x="876" y="82">Action</text>
    </g>
    <g font-size="12" fill="#2c3448">
      <text x="25" y="120">1</text><text x="76" y="120">Ahmed Khan</text><text x="323" y="120">10th</text><text x="445" y="120">ahmed@email.com</text><text x="660" y="120">0300-1234567</text>
      <text x="25" y="158">2</text><text x="76" y="158">Fatima Ali</text><text x="323" y="158">9th</text><text x="445" y="158">fatima@email.com</text><text x="660" y="158">0300-2345678</text>
      <text x="25" y="196">3</text><text x="76" y="196">Usman Tariq</text><text x="323" y="196">8th</text><text x="445" y="196">usman@email.com</text><text x="660" y="196">0300-3456789</text>
      <text x="25" y="234">4</text><text x="76" y="234">Ayesha Malik</text><text x="323" y="234">10th</text><text x="445" y="234">ayesha@email.com</text><text x="660" y="234">0300-4567890</text>
    </g>
    <g stroke="#e5e8f1">
      <line x1="18" y1="134" x2="902" y2="134"/><line x1="18" y1="172" x2="902" y2="172"/><line x1="18" y1="210" x2="902" y2="210"/>
    </g>
    <g fill="none" stroke-width="1.8" stroke-linecap="round">
      <path d="M881 113l-8 8h-6v-6l8-8 6 6zM877 107l6 6" stroke="#2862ff"/>
      <path d="M906 110v13M901 110v13M898 108h11M900 108l1-3h5l1 3" stroke="#ff2f36"/>
      <path d="M881 151l-8 8h-6v-6l8-8 6 6zM877 145l6 6" stroke="#2862ff"/>
      <path d="M906 148v13M901 148v13M898 146h11M900 146l1-3h5l1 3" stroke="#ff2f36"/>
      <path d="M881 189l-8 8h-6v-6l8-8 6 6zM877 183l6 6" stroke="#2862ff"/>
      <path d="M906 186v13M901 186v13M898 184h11M900 184l1-3h5l1 3" stroke="#ff2f36"/>
      <path d="M881 227l-8 8h-6v-6l8-8 6 6zM877 221l6 6" stroke="#2862ff"/>
      <path d="M906 224v13M901 224v13M898 222h11M900 222l1-3h5l1 3" stroke="#ff2f36"/>
    </g>
  </g>

  <g transform="translate(254 508)" font-family="Inter, Arial, sans-serif" filter="url(#shadow)">
    <rect width="438" height="145" rx="7" fill="#ffffff" stroke="#e5e8f1"/>
    <text x="18" y="33" fill="#101827" font-size="16" font-weight="900">Recent Teachers</text>
    <rect x="369" y="18" width="51" height="24" rx="5" fill="#ffffff" stroke="#e5e8f1"/>
    <text x="379" y="35" fill="#372cff" font-size="12" font-weight="760">View All</text>
    <rect x="18" y="60" width="402" height="32" fill="#f7f8fb"/>
    <text x="22" y="81" fill="#3d465c" font-size="11" font-weight="750">#</text>
    <text x="58" y="81" fill="#3d465c" font-size="11" font-weight="750">Name</text>
    <text x="170" y="81" fill="#3d465c" font-size="11" font-weight="750">Subject</text>
    <text x="268" y="81" fill="#3d465c" font-size="11" font-weight="750">Email</text>
    <text x="22" y="118" fill="#2c3448" font-size="11">1</text>
    <text x="58" y="118" fill="#2c3448" font-size="11">Mr. Ali Raza</text>
    <text x="170" y="118" fill="#2c3448" font-size="11">Mathematics</text>
    <text x="268" y="118" fill="#2c3448" font-size="11">ali@email.com</text>
  </g>

  <g transform="translate(713 508)" font-family="Inter, Arial, sans-serif" filter="url(#shadow)">
    <rect width="461" height="145" rx="7" fill="#ffffff" stroke="#e5e8f1"/>
    <text x="18" y="33" fill="#101827" font-size="16" font-weight="900">Recent Subjects</text>
    <rect x="392" y="18" width="51" height="24" rx="5" fill="#ffffff" stroke="#e5e8f1"/>
    <text x="402" y="35" fill="#372cff" font-size="12" font-weight="760">View All</text>
    <rect x="18" y="60" width="425" height="32" fill="#f7f8fb"/>
    <text x="22" y="81" fill="#3d465c" font-size="11" font-weight="750">#</text>
    <text x="58" y="81" fill="#3d465c" font-size="11" font-weight="750">Subject Name</text>
    <text x="206" y="81" fill="#3d465c" font-size="11" font-weight="750">Teacher</text>
    <text x="22" y="118" fill="#2c3448" font-size="11">1</text>
    <text x="58" y="118" fill="#2c3448" font-size="11">Mathematics</text>
    <text x="206" y="118" fill="#2c3448" font-size="11">Mr. Ali Raza</text>
  </g>
</svg>
